<?xml version="1.0" standalone="no"?>
<!DOCTYPE svg PUBLIC "-//W3C//DTD SVG 20010904//EN"
 "http://www.w3.org/TR/2001/REC-SVG-20010904/DTD/svg10.dtd">
<svg version="1.0" xmlns="http://www.w3.org/2000/svg"
 width="590.000000pt" height="525.000000pt" viewBox="0 0 590.000000 525.000000"
 preserveAspectRatio="xMidYMid meet">
<metadata>
Created by potrace 1.15, written by Peter Selinger 2001-2017
</metadata>
<g transform="translate(0.000000,525.000000) scale(0.100000,-0.100000)"
fill="#000000" stroke="none">
<path d="M2778 4667 c-76 -44 -138 -85 -138 -90 0 -13 233 -348 238 -342 8 7
213 448 210 450 -2 2 -26 17 -54 34 -77 47 -97 42 -256 -52z"/>
<path d="M3111 4588 c-16 -35 -65 -141 -110 -237 -45 -96 -81 -179 -79 -186 6
-24 553 -813 559 -807 11 12 449 820 449 829 0 7 -772 463 -785 463 -3 0 -19
-28 -34 -62z"/>
<path d="M2525 4520 c-27 -16 -349 -204 -715 -418 l-665 -389 -3 -99 -2 -99
430 -525 c237 -289 439 -533 448 -542 16 -17 39 29 422 847 l405 866 22 -25
21 -25 12 30 c10 24 10 33 -5 56 l-18 26 -14 -26 c-7 -15 -15 -27 -17 -27 -2
0 -61 85 -132 190 -71 104 -131 189 -134 189 -3 0 -27 -13 -55 -29z"/>
<path d="M3800 3818 c-102 -187 -207 -381 -233 -430 l-49 -90 -22 21 -23 21
-11 -25 c-10 -21 -9 -30 5 -51 l16 -26 15 27 c7 15 18 23 22 19 5 -5 207 -299
450 -654 243 -355 447 -651 454 -658 10 -10 45 48 174 285 l162 297 -2 579 -3
580 -375 219 c-206 121 -379 222 -385 224 -5 2 -93 -150 -195 -338z"/>
<path d="M2480 3240 c-222 -473 -406 -860 -409 -860 -4 0 -12 10 -20 22 l-13
22 -15 -27 c-7 -15 -15 -27 -17 -27 -2 0 -82 96 -178 213 -96 116 -290 353
-431 525 l-257 313 0 -913 1 -913 195 -113 c108 -63 199 -110 204 -105 4 4
109 227 235 496 125 268 230 487 234 487 3 0 12 -10 20 -22 l13 -22 15 27 c8
15 17 25 21 23 5 -3 122 -144 262 -315 195 -238 257 -308 266 -298 16 18 834
1524 834 1536 0 10 -520 774 -544 799 -10 10 -90 -152 -416 -848z"/>
<path d="M3417 3113 c-35 -65 -219 -401 -407 -748 -188 -346 -349 -641 -358
-654 l-15 -25 -18 22 -17 22 -19 -24 -18 -24 -255 313 c-140 173 -258 314
-261 314 -3 1 -53 -101 -112 -226 -58 -126 -160 -344 -227 -487 -67 -142 -119
-260 -117 -262 9 -9 588 -344 595 -344 4 0 90 153 191 340 102 187 188 340
192 340 3 0 12 -7 19 -15 17 -20 27 -19 35 6 4 11 11 19 15 17 5 -2 171 -201
370 -443 198 -242 366 -439 373 -437 7 2 148 82 313 179 l301 176 198 363
c109 201 201 367 206 369 4 3 14 -4 23 -16 l14 -21 14 21 c7 11 16 21 19 21 4
0 55 -71 115 -157 59 -87 109 -160 110 -162 2 -2 17 2 34 9 l30 12 0 416 c0
228 -2 413 -4 411 -2 -2 -65 -116 -140 -253 -75 -137 -139 -252 -142 -255 -3
-3 -14 5 -23 18 l-19 24 -14 -28 -15 -28 -65 94 c-36 52 -240 348 -453 659
-212 311 -390 569 -395 573 -4 5 -37 -45 -73 -110z"/>
<path d="M4268 1528 c-91 -167 -164 -305 -162 -307 3 -3 520 294 536 308 8 7
-183 293 -199 298 -6 2 -85 -133 -175 -299z"/>
<path d="M2445 1328 c-87 -161 -169 -310 -181 -333 l-23 -40 338 -197 c255
-150 346 -198 371 -198 24 0 80 27 201 98 93 53 167 100 166 104 -4 14 -699
858 -707 858 -4 0 -78 -131 -165 -292z"/>
</g>
</svg>
